<mxfile host="app.diagrams.net" modified="2020-11-28T11:34:59.613Z" agent="5.0 (Windows NT 10.0; Win64; x64) AppleWebKit/537.36 (KHTML, like Gecko) Chrome/87.0.4280.67 Safari/537.36 Edg/87.0.664.47" etag="E35O76wXusOz-vbnj3Q2" version="13.10.4" type="github">
  <diagram id="-mnaV-Pqfqw7JuDCNJUH" name="Page-1">
    <mxGraphModel dx="1038" dy="585" grid="1" gridSize="10" guides="1" tooltips="1" connect="1" arrows="1" fold="1" page="1" pageScale="1" pageWidth="850" pageHeight="1100" math="0" shadow="0">
      <root>
        <mxCell id="0" />
        <mxCell id="1" parent="0" />
        <mxCell id="Vr40aO1YH7RdBKerdRvp-5" style="rounded=0;orthogonalLoop=1;jettySize=auto;html=1;exitX=0.5;exitY=0.5;exitDx=0;exitDy=0;exitPerimeter=0;entryX=0.015;entryY=0.405;entryDx=0;entryDy=0;entryPerimeter=0;" edge="1" parent="1" source="Vr40aO1YH7RdBKerdRvp-1" target="Vr40aO1YH7RdBKerdRvp-4">
          <mxGeometry relative="1" as="geometry" />
        </mxCell>
        <mxCell id="Vr40aO1YH7RdBKerdRvp-10" style="edgeStyle=none;rounded=0;orthogonalLoop=1;jettySize=auto;html=1;exitX=1;exitY=1;exitDx=0;exitDy=0;exitPerimeter=0;entryX=0;entryY=0.5;entryDx=0;entryDy=0;" edge="1" parent="1" source="Vr40aO1YH7RdBKerdRvp-1" target="Vr40aO1YH7RdBKerdRvp-6">
          <mxGeometry relative="1" as="geometry" />
        </mxCell>
        <mxCell id="Vr40aO1YH7RdBKerdRvp-1" value="Quản lý&amp;nbsp;" style="shape=umlActor;verticalLabelPosition=bottom;verticalAlign=top;html=1;outlineConnect=0;" vertex="1" parent="1">
          <mxGeometry x="170" y="280" width="30" height="60" as="geometry" />
        </mxCell>
        <mxCell id="Vr40aO1YH7RdBKerdRvp-14" value="&amp;lt;include&amp;gt;" style="edgeStyle=none;rounded=0;orthogonalLoop=1;jettySize=auto;html=1;exitX=1;exitY=0.5;exitDx=0;exitDy=0;entryX=0.043;entryY=0.315;entryDx=0;entryDy=0;entryPerimeter=0;dashed=1;" edge="1" parent="1" source="Vr40aO1YH7RdBKerdRvp-4" target="Vr40aO1YH7RdBKerdRvp-8">
          <mxGeometry relative="1" as="geometry" />
        </mxCell>
        <mxCell id="Vr40aO1YH7RdBKerdRvp-4" value="Xem danh sách&lt;br&gt;sản phẩm" style="ellipse;whiteSpace=wrap;html=1;" vertex="1" parent="1">
          <mxGeometry x="330" y="170" width="120" height="80" as="geometry" />
        </mxCell>
        <mxCell id="Vr40aO1YH7RdBKerdRvp-15" value="&amp;lt;include&amp;gt;" style="edgeStyle=none;rounded=0;orthogonalLoop=1;jettySize=auto;html=1;exitX=1;exitY=0.5;exitDx=0;exitDy=0;entryX=0.03;entryY=0.765;entryDx=0;entryDy=0;entryPerimeter=0;dashed=1;" edge="1" parent="1" source="Vr40aO1YH7RdBKerdRvp-6" target="Vr40aO1YH7RdBKerdRvp-8">
          <mxGeometry relative="1" as="geometry" />
        </mxCell>
        <mxCell id="Vr40aO1YH7RdBKerdRvp-6" value="Xem danh sách doanh mục sản phẩm" style="ellipse;whiteSpace=wrap;html=1;" vertex="1" parent="1">
          <mxGeometry x="340" y="330" width="120" height="80" as="geometry" />
        </mxCell>
        <mxCell id="Vr40aO1YH7RdBKerdRvp-8" value="Tìm kiếm" style="ellipse;whiteSpace=wrap;html=1;" vertex="1" parent="1">
          <mxGeometry x="520" y="260" width="120" height="80" as="geometry" />
        </mxCell>
        <mxCell id="Vr40aO1YH7RdBKerdRvp-12" value="&amp;lt;extend&amp;gt;" style="edgeStyle=none;rounded=0;orthogonalLoop=1;jettySize=auto;html=1;exitX=0.5;exitY=0;exitDx=0;exitDy=0;entryX=0.357;entryY=1;entryDx=0;entryDy=0;entryPerimeter=0;dashed=1;" edge="1" parent="1" source="Vr40aO1YH7RdBKerdRvp-9" target="Vr40aO1YH7RdBKerdRvp-6">
          <mxGeometry relative="1" as="geometry" />
        </mxCell>
        <mxCell id="Vr40aO1YH7RdBKerdRvp-9" value="Tạo danh mục sản phẩm" style="ellipse;whiteSpace=wrap;html=1;" vertex="1" parent="1">
          <mxGeometry x="300" y="460" width="120" height="80" as="geometry" />
        </mxCell>
        <mxCell id="Vr40aO1YH7RdBKerdRvp-13" value="&amp;lt;extend&amp;gt;" style="edgeStyle=none;rounded=0;orthogonalLoop=1;jettySize=auto;html=1;exitX=0;exitY=0;exitDx=0;exitDy=0;entryX=0.77;entryY=0.96;entryDx=0;entryDy=0;entryPerimeter=0;dashed=1;" edge="1" parent="1" source="Vr40aO1YH7RdBKerdRvp-11" target="Vr40aO1YH7RdBKerdRvp-6">
          <mxGeometry relative="1" as="geometry" />
        </mxCell>
        <mxCell id="Vr40aO1YH7RdBKerdRvp-11" value="Cập nhật danh mục sản phẩm" style="ellipse;whiteSpace=wrap;html=1;" vertex="1" parent="1">
          <mxGeometry x="480" y="430" width="120" height="80" as="geometry" />
        </mxCell>
        <mxCell id="Vr40aO1YH7RdBKerdRvp-21" style="edgeStyle=none;rounded=0;orthogonalLoop=1;jettySize=auto;html=1;exitX=0;exitY=0.75;exitDx=0;exitDy=0;endArrow=none;endFill=0;" edge="1" parent="1" source="Vr40aO1YH7RdBKerdRvp-18">
          <mxGeometry relative="1" as="geometry">
            <mxPoint x="230" y="560" as="targetPoint" />
          </mxGeometry>
        </mxCell>
        <mxCell id="Vr40aO1YH7RdBKerdRvp-25" style="edgeStyle=none;rounded=0;orthogonalLoop=1;jettySize=auto;html=1;exitX=1;exitY=0;exitDx=0;exitDy=0;endArrow=none;endFill=0;" edge="1" parent="1" source="Vr40aO1YH7RdBKerdRvp-18">
          <mxGeometry relative="1" as="geometry">
            <mxPoint x="720" y="150" as="targetPoint" />
          </mxGeometry>
        </mxCell>
        <mxCell id="Vr40aO1YH7RdBKerdRvp-18" value="" style="shape=partialRectangle;whiteSpace=wrap;html=1;bottom=0;right=0;fillColor=none;" vertex="1" parent="1">
          <mxGeometry x="230" y="150" width="120" height="60" as="geometry" />
        </mxCell>
        <mxCell id="Vr40aO1YH7RdBKerdRvp-23" style="edgeStyle=none;rounded=0;orthogonalLoop=1;jettySize=auto;html=1;exitX=0;exitY=1;exitDx=0;exitDy=0;endArrow=none;endFill=0;" edge="1" parent="1" source="Vr40aO1YH7RdBKerdRvp-22">
          <mxGeometry relative="1" as="geometry">
            <mxPoint x="230" y="560" as="targetPoint" />
          </mxGeometry>
        </mxCell>
        <mxCell id="Vr40aO1YH7RdBKerdRvp-24" style="edgeStyle=none;rounded=0;orthogonalLoop=1;jettySize=auto;html=1;exitX=1;exitY=0;exitDx=0;exitDy=0;endArrow=none;endFill=0;" edge="1" parent="1" source="Vr40aO1YH7RdBKerdRvp-22">
          <mxGeometry relative="1" as="geometry">
            <mxPoint x="720" y="150" as="targetPoint" />
          </mxGeometry>
        </mxCell>
        <mxCell id="Vr40aO1YH7RdBKerdRvp-22" value="" style="shape=partialRectangle;whiteSpace=wrap;html=1;top=0;left=0;fillColor=none;" vertex="1" parent="1">
          <mxGeometry x="600" y="500" width="120" height="60" as="geometry" />
        </mxCell>
      </root>
    </mxGraphModel>
  </diagram>
</mxfile>
